<?xml version="1.0" encoding="UTF-8"?>
<!DOCTYPE svg PUBLIC "-//W3C//DTD SVG 1.1//EN" "http://www.w3.org/Graphics/SVG/1.1/DTD/svg11.dtd">
<!-- Creator: CorelDRAW -->
<svg xmlns="http://www.w3.org/2000/svg" xml:space="preserve" width="57.2267mm" height="65.4139mm" version="1.1" style="shape-rendering:geometricPrecision; text-rendering:geometricPrecision; image-rendering:optimizeQuality; fill-rule:evenodd; clip-rule:evenodd"
viewBox="0 0 477.45 545.76"
 xmlns:xlink="http://www.w3.org/1999/xlink"
 xmlns:xodm="http://www.corel.com/coreldraw/odm/2003">
 <defs>
  <style type="text/css">
   <![CDATA[
    .str0 {stroke:black;stroke-width:33.37;stroke-miterlimit:22.9256}
    .fil0 {fill:none;fill-rule:nonzero}
   ]]>
  </style>
 </defs>
 <g id="Capa_x0020_1">
  <metadata id="CorelCorpID_0Corel-Layer"/>
  <path class="fil0 str0" d="M405.46 126.27c-3.45,-1.77 -6.84,-3.77 -10.08,-5.88 -9.47,-6.24 -18.2,-13.67 -25.9,-22 -19.32,-22.11 -26.54,-44.53 -29.19,-60.23l0.1 -0.01c-2.22,-13.03 -1.3,-21.47 -1.16,-21.47l-88 0 0 340.27c0,4.57 0,9.08 -0.19,13.55 0,0.55 -0.05,1.07 -0.09,1.67 0,0.25 0,0.5 -0.05,0.76 0,0.06 0,0.13 0,0.19 -1.88,24.79 -15.99,47.03 -37.6,59.31 -11.06,6.29 -23.58,9.61 -36.31,9.61 -0.03,0 -0.07,0 -0.1,0 -41,0 -74.23,-33.43 -74.23,-74.72 0,-41.29 33.23,-74.72 74.23,-74.72 0.02,0 0.05,0 0.07,0 7.73,0 15.44,1.23 22.79,3.62l0.11 -89.6c-6.93,-0.89 -13.96,-1.35 -20.94,-1.35 -38.4,0 -75.6,13.53 -105.01,38.2 -15.13,13.16 -27.93,28.93 -37.67,46.47 -3.72,6.4 -17.73,32.14 -19.43,73.91 -1.07,23.71 6.05,48.27 9.45,58.42l0 0.21c2.14,5.98 10.41,26.38 23.89,43.57 10.85,13.77 23.73,25.91 38.11,35.95l0 -0.21 0.21 0.21c42.59,28.95 89.83,27.05 89.83,27.05 8.18,-0.33 35.57,0 66.67,-14.74 34.5,-16.34 54.14,-40.69 54.14,-40.69 12.54,-14.53 22.54,-31.15 29.49,-49.04 7.96,-20.93 10.62,-46.04 10.62,-56.07l0.01 -180.51c1.07,0.64 15.29,10.04 15.29,10.04 0,0 20.48,13.13 52.44,21.68 22.93,6.08 53.82,7.36 53.82,7.36l0 -87.36c-10.82,1.17 -32.8,-2.24 -55.3,-13.46z"/>
 </g>
</svg>
