<?xml version="1.0" encoding="UTF-8"?>
<!DOCTYPE svg PUBLIC "-//W3C//DTD SVG 1.1//EN" "http://www.w3.org/Graphics/SVG/1.1/DTD/svg11.dtd">
<!-- Creator: CorelDRAW -->
<svg xmlns="http://www.w3.org/2000/svg" xml:space="preserve" width="70.4579mm" height="69.5682mm" version="1.1" style="shape-rendering:geometricPrecision; text-rendering:geometricPrecision; image-rendering:optimizeQuality; fill-rule:evenodd; clip-rule:evenodd"
viewBox="0 0 1557 1537.34"
 xmlns:xlink="http://www.w3.org/1999/xlink"
 xmlns:xodm="http://www.corel.com/coreldraw/odm/2003">
 <defs>
  <style type="text/css">
   <![CDATA[
    .fil0 {fill:#0DC143}
    .fil1 {fill:white}
   ]]>
  </style>
 </defs>
 <g id="Capa_x0020_1">
  <metadata id="CorelCorpID_0Corel-Layer"/>
  <g id="_2930817178736">
   <path class="fil0" d="M351.01 1196.23c12.01,-57.5 34.6,-115.39 53.38,-170.3 41.3,-120.74 30.74,-46.87 -1.62,-162.24 -112.98,-402.74 383.99,-702.19 685.34,-404.63 302.09,298.29 2.23,803.47 -405.84,686.43 -105.82,-30.35 -48.69,-49.82 -165.58,-7.36 -51.54,18.72 -115.98,46.89 -165.68,58.11zm427.49 -1196.23c429.95,0 778.5,344.15 778.5,768.67 0,424.53 -348.55,768.67 -778.5,768.67 -429.95,0 -778.5,-344.15 -778.5,-768.67 0,-424.52 348.55,-768.67 778.5,-768.67z"/>
   <path class="fil0" d="M1003.15 917.31c-33.44,34.12 -115.85,45.6 -176.69,29.8 -63.92,-16.6 -105.92,-53.13 -139.36,-87.05 -140.11,-142.06 -86.11,-298.2 -44.34,-313.43 49.48,-18.03 119.74,45.74 68.75,108.19 -47.55,58.22 15.15,112.62 45.85,142.8 62.78,61.72 91.5,80.79 138.74,42.17 61.41,-50.21 121.48,6.21 107.05,77.53zm-542.76 164.15c38.12,-7.57 106.57,-42.23 133.39,-44.62 21.81,-1.94 235.03,137.19 418.33,-19.01 152.37,-129.84 178.45,-363.24 28.31,-511.06 -232.76,-229.16 -646.34,-20.02 -577.09,311.75 8.19,39.23 46.96,110.27 45.78,127.6 -1.2,17.48 -41.54,103.34 -48.72,135.34z"/>
   <path class="fil1" d="M460.39 1081.46c7.18,-32 47.52,-117.86 48.72,-135.34 1.18,-17.33 -37.59,-88.37 -45.78,-127.6 -69.26,-331.77 344.33,-540.91 577.09,-311.75 150.14,147.82 124.06,381.22 -28.31,511.06 -183.3,156.2 -396.52,17.06 -418.33,19.01 -26.82,2.39 -95.27,37.05 -133.39,44.62zm-109.38 114.77c49.7,-11.21 114.15,-39.38 165.68,-58.11 116.89,-42.46 59.76,-22.99 165.58,7.36 408.07,117.03 707.93,-388.15 405.84,-686.43 -301.35,-297.56 -798.32,1.9 -685.34,404.63 32.36,115.37 42.92,41.5 1.62,162.24 -18.78,54.91 -41.37,112.81 -53.38,170.3z"/>
   <path class="fil1" d="M1003.15 917.31c14.43,-71.32 -45.64,-127.74 -107.05,-77.53 -47.24,38.63 -75.96,19.56 -138.74,-42.17 -30.69,-30.18 -93.4,-84.57 -45.85,-142.8 51,-62.45 -19.27,-126.22 -68.75,-108.19 -41.78,15.23 -95.78,171.37 44.34,313.43 33.45,33.91 75.44,70.44 139.36,87.05 60.84,15.8 143.25,4.32 176.69,-29.8z"/>
  </g>
 </g>
</svg>
